<svg width="228" height="20" viewBox="0 0 228 20" fill="none" xmlns="http://www.w3.org/2000/svg">
<g id="PAF">
<path id="Founded" fill-rule="evenodd" clip-rule="evenodd" d="M121.045 16.7818L119.915 19.533L118.61 15.9065C118.597 15.8754 118.583 15.8477 118.572 15.8229L118.572 15.8229L118.572 15.8226L118.572 15.8226L118.571 15.8224L118.571 15.8223L118.557 15.7908C118.535 15.7586 118.511 15.7351 118.484 15.7177C118.403 15.6742 118.269 15.6515 118.083 15.6515V15.2391H119.71L119.842 15.6515C119.524 15.6515 119.363 15.7194 119.363 15.8578C119.363 15.8873 119.369 15.923 119.382 15.9665L120.007 17.778L121.099 15.0808L122.186 17.778L123.277 15.093L123.668 15.2504L122.151 19.533L121.045 16.7818ZM78.6827 18.8042C79.0514 18.4118 79.2357 17.9124 79.2357 17.3103C79.2357 16.7073 79.0488 16.2053 78.6766 15.8085C78.2844 15.3926 77.7601 15.1847 77.1044 15.1847C76.461 15.1847 75.941 15.3952 75.5444 15.8155C75.1679 16.207 74.9801 16.7073 74.9801 17.3103C74.9801 17.908 75.1644 18.4074 75.5323 18.8042C75.9288 19.2288 76.4488 19.4411 77.0923 19.4411C77.7601 19.4411 78.2905 19.2288 78.6827 18.8042ZM73.7541 15.8042C73.9723 15.8042 74.1019 15.9434 74.1428 16.2227L74.5489 16.1365L74.428 15.2386H71.8237L71.7384 15.658C72.0184 15.658 72.1576 15.7676 72.1576 15.986V19.381H72.9045V17.7897C72.9045 17.6914 72.9567 17.6313 73.0619 17.6078L74.0515 17.3642V17.0736H72.8802V15.8042H73.7541ZM78.4583 17.3103C78.4583 16.8726 78.3366 16.502 78.094 16.1983C77.8349 15.8781 77.5053 15.7189 77.1044 15.7189C76.7036 15.7189 76.3757 15.879 76.121 16.2044C75.8783 16.5124 75.7575 16.8804 75.7575 17.3103C75.7575 17.7427 75.8783 18.1116 76.121 18.4153C76.3757 18.7398 76.7036 18.9008 77.1044 18.9008C77.5096 18.9008 77.8392 18.7398 78.094 18.4153C78.3366 18.1038 78.4583 17.7349 78.4583 17.3103ZM82.7989 19.0106C83.078 18.7235 83.2171 18.3224 83.2171 17.8082V15.2389H82.7015L82.525 17.7412C82.4719 18.4982 82.1632 18.8775 81.5989 18.8775C81.3432 18.8775 81.1302 18.7679 80.9597 18.5495C80.8502 18.4059 80.7954 18.1501 80.7954 17.7778V15.968C80.7954 15.7574 80.9345 15.6513 81.2145 15.6513L81.1232 15.2389H79.7084V15.6513C79.891 15.6513 80.0084 15.7061 80.0606 15.8157C80.0937 15.8758 80.1093 16.0124 80.1093 16.2229V17.8508C80.1093 18.3711 80.265 18.7775 80.5771 19.0637C80.8519 19.3152 81.1963 19.4413 81.6084 19.4413C82.1145 19.4413 82.511 19.2978 82.7989 19.0106ZM87.8669 15.6576C87.6034 15.6576 87.4721 15.7864 87.4721 16.0457V19.4599L84.8321 16.3989V19.3798H84.2121V15.9857C84.2121 15.7673 84.0747 15.6576 83.7999 15.6576L83.8843 15.2391H84.7225L86.853 17.7293V16.1684C86.853 15.9987 86.833 15.8786 86.7921 15.8099C86.7399 15.7151 86.633 15.6663 86.4712 15.6576L86.4947 15.2391H87.7938L87.8669 15.6576ZM91.7634 18.7543C92.1356 18.3619 92.3225 17.879 92.3225 17.3039C92.3225 16.741 92.1521 16.2694 91.8121 15.8892C91.4234 15.455 90.8877 15.2375 90.2034 15.2375H88.3825L88.2973 15.6577C88.573 15.6577 88.7103 15.7674 88.7103 15.9857V19.3808H90.1973C90.8486 19.3808 91.3712 19.1728 91.7634 18.7543ZM91.5451 17.3222C91.5451 16.8889 91.419 16.5226 91.1686 16.2215C90.9173 15.9231 90.5573 15.7734 90.0886 15.7734H89.4573V18.8335H90.113C90.546 18.8335 90.8912 18.6925 91.1503 18.4089C91.4138 18.1218 91.5451 17.759 91.5451 17.3222ZM92.8011 15.6576C93.0768 15.6576 93.2142 15.7673 93.2142 15.9857V19.3798H95.7394V18.816H93.9672V17.7397C93.9672 17.6736 93.9768 17.6327 93.9976 17.6118C94.022 17.5883 94.0646 17.5701 94.1246 17.5579L95.2055 17.316V17.0237H93.9368V15.8038H94.9081C95.1263 15.8038 95.2559 15.943 95.2968 16.2214L95.7029 16.1379L95.582 15.2391H92.8863L92.8011 15.6576ZM100.165 17.3039C100.165 17.879 99.9782 18.3619 99.606 18.7543C99.2138 19.1728 98.6912 19.3808 98.0399 19.3808H96.553V15.9857C96.553 15.7674 96.4156 15.6577 96.1399 15.6577L96.2251 15.2375H98.046C98.7303 15.2375 99.266 15.455 99.6547 15.8892C99.9947 16.2694 100.165 16.741 100.165 17.3039ZM99.0112 16.2215C99.2616 16.5226 99.3877 16.8889 99.3877 17.3222C99.3877 17.759 99.2564 18.1218 98.993 18.4089C98.7338 18.6925 98.3886 18.8335 97.9556 18.8335H97.2999V15.7734H97.9312C98.3999 15.7734 98.7599 15.9231 99.0112 16.2215ZM102.24 19.381V18.9668C102.435 18.9668 102.558 18.9259 102.611 18.8406C102.659 18.7675 102.684 18.6196 102.684 18.3969V15.2377H103.418V18.6518C103.418 18.8024 103.483 18.8981 103.612 18.9433C103.632 18.952 103.665 18.9581 103.709 18.9624C103.754 18.9651 103.811 18.9668 103.879 18.9668L103.788 19.381H102.24ZM107.897 16.0457C107.897 15.7864 108.029 15.6576 108.292 15.6576L108.219 15.2391H106.92L106.897 15.6576C107.058 15.6663 107.165 15.7151 107.217 15.8099C107.258 15.8786 107.278 15.9987 107.278 16.1684V17.7293L105.148 15.2391H104.31L104.225 15.6576C104.5 15.6576 104.637 15.7673 104.637 15.9857V19.3798H105.257V16.3989L107.897 19.4599V16.0457ZM114.49 15.6576C114.225 15.6576 114.096 15.7864 114.096 16.0457V19.4599L111.455 16.3989V19.3798H110.835V15.9857C110.835 15.7673 110.698 15.6576 110.423 15.6576L110.507 15.2391H111.345L113.476 17.7293V16.1684C113.476 15.9987 113.456 15.8786 113.416 15.8099C113.362 15.7151 113.255 15.6663 113.094 15.6576L113.118 15.2391H114.417L114.49 15.6576ZM114.92 15.6576C115.196 15.6576 115.334 15.7673 115.334 15.9857V19.3798H117.857V18.816H116.085V17.7397C116.085 17.6736 116.096 17.6327 116.115 17.6118C116.141 17.5883 116.183 17.5701 116.244 17.5579L117.323 17.316V17.0237H116.055V15.8038H117.026C117.244 15.8038 117.375 15.943 117.415 16.2214L117.821 16.1379L117.701 15.2391H115.005L114.92 15.6576ZM126.988 19.381H127.735V17.7104L129.01 15.2446L128.682 15.1176L127.45 17.0605L126.843 15.8702C126.831 15.838 126.823 15.8128 126.823 15.798C126.823 15.7005 126.954 15.6518 127.212 15.6518L127.066 15.2377H125.471V15.6518C125.615 15.6518 125.713 15.6605 125.76 15.6762C125.864 15.7031 125.939 15.7658 125.986 15.858L126.988 17.7235V19.381ZM133.513 17.3103C133.513 17.9124 133.329 18.4118 132.96 18.8042C132.568 19.2288 132.037 19.4411 131.371 19.4411C130.726 19.4411 130.207 19.2288 129.811 18.8042C129.442 18.4074 129.258 17.908 129.258 17.3103C129.258 16.7073 129.447 16.207 129.821 15.8155C130.218 15.3952 130.738 15.1847 131.381 15.1847C132.037 15.1847 132.562 15.3926 132.954 15.8085C133.327 16.2053 133.513 16.7073 133.513 17.3103ZM132.372 16.1983C132.613 16.502 132.736 16.8726 132.736 17.3103C132.736 17.7349 132.613 18.1038 132.372 18.4153C132.116 18.7398 131.786 18.9008 131.381 18.9008C130.98 18.9008 130.653 18.7398 130.399 18.4153C130.155 18.1116 130.035 17.7427 130.035 17.3103C130.035 16.8804 130.155 16.5124 130.399 16.2044C130.653 15.879 130.98 15.7189 131.381 15.7189C131.782 15.7189 132.112 15.8781 132.372 16.1983ZM137.398 19.1568C137.398 19.229 137.368 19.2943 137.306 19.3491C137.246 19.4118 137.18 19.4413 137.107 19.4413C137.024 19.4413 136.957 19.4074 136.901 19.3387L135.575 17.5707H135.152V18.6522C135.152 18.8627 135.291 18.968 135.57 18.968L135.48 19.3813H134.4V15.9854C134.4 15.767 134.261 15.6574 133.987 15.6574L134.072 15.2389H135.635C136.059 15.2389 136.394 15.3381 136.64 15.5364C136.89 15.7392 137.015 16.0132 137.015 16.3621C137.015 16.8363 136.797 17.173 136.361 17.3766L137.368 19.0472C137.387 19.0794 137.398 19.1159 137.398 19.1568ZM135.48 15.767C136.001 15.767 136.263 15.9636 136.269 16.356C136.273 16.798 135.998 17.0182 135.45 17.0182H135.122V15.767H135.48ZM141.343 19.1864C141.343 19.2464 141.32 19.3065 141.271 19.363C141.217 19.4152 141.158 19.4413 141.095 19.4413C141.026 19.4413 140.953 19.4074 140.876 19.3387L139.001 17.535C138.951 17.4863 138.91 17.4741 138.878 17.4985C138.87 17.5054 138.862 17.5124 138.856 17.5167C138.856 17.5202 138.849 17.5289 138.836 17.5394C138.821 17.5611 138.813 17.5933 138.813 17.6385V19.3813H138.064V16.1681C138.064 15.9897 138.044 15.8688 138.004 15.8027C137.944 15.7026 137.831 15.6522 137.665 15.6522L137.683 15.2389H139.147L139.22 15.6565C138.947 15.653 138.813 15.7835 138.813 16.0472V17.066L140.476 15.2389H141.271V15.3781C141.271 15.4512 141.228 15.4999 141.143 15.5243C140.949 15.5834 140.788 15.68 140.664 15.8096L139.541 17.0182L141.289 19.0472C141.324 19.0881 141.343 19.1325 141.343 19.1864ZM144.572 18.8408C144.511 18.9296 144.361 18.9739 144.123 18.9739V19.3811H145.368V15.1787L143.941 15.5667V16.1131L144.262 16.0209C144.335 16.0018 144.392 15.9913 144.431 15.9913C144.571 15.9913 144.639 16.0748 144.639 16.2393V18.4136C144.639 18.6329 144.616 18.7747 144.572 18.8408ZM149.318 16.7941C149.331 17.458 149.219 18.0262 148.985 18.4995C148.712 19.0511 148.322 19.353 147.813 19.4044C147.501 19.4383 147.251 19.3565 147.066 19.1625V18.8893C147.106 18.8962 147.259 18.8997 147.527 18.8997C147.801 18.8997 148.026 18.7796 148.199 18.5352C148.359 18.3168 148.459 18.0088 148.504 17.6077C148.483 17.6242 148.375 17.6459 148.182 17.6738C148.096 17.6882 148.027 17.6987 147.973 17.7069L147.972 17.7069L147.95 17.7103C147.894 17.719 147.858 17.7234 147.84 17.7234C147.821 17.7269 147.797 17.7295 147.773 17.7295H147.7C147.389 17.7295 147.12 17.6181 146.897 17.3954C146.659 17.1561 146.539 16.8481 146.539 16.4705C146.539 16.1059 146.67 15.7996 146.933 15.5491C147.199 15.302 147.533 15.1784 147.939 15.1784C148.839 15.1784 149.299 15.7161 149.318 16.7941ZM147.92 15.7187C148.355 15.7187 148.573 16.0955 148.573 16.8481V16.9882C148.569 17.024 148.566 17.0595 148.564 17.0951L148.559 17.1465C148.559 17.1543 148.52 17.1639 148.445 17.1761C148.372 17.1804 148.335 17.1865 148.335 17.1935H147.963C147.752 17.1935 147.584 17.1248 147.463 16.9882C147.345 16.8463 147.286 16.6706 147.286 16.46C147.286 16.2373 147.343 16.0572 147.457 15.9197C147.575 15.784 147.728 15.7187 147.92 15.7187ZM152.427 18.2084C152.427 18.5886 152.282 18.8948 151.99 19.1263C151.716 19.3403 151.377 19.4482 150.976 19.4482C150.858 19.4482 150.757 19.4456 150.672 19.4412C150.614 19.4361 150.563 19.4302 150.518 19.425L150.518 19.425C150.494 19.4223 150.473 19.4198 150.453 19.4178L150.333 18.8887C150.57 18.9523 150.783 18.9801 150.97 18.9679C151.197 18.9479 151.366 18.8713 151.479 18.7356C151.597 18.5955 151.656 18.4119 151.656 18.1901C151.656 17.7559 151.404 17.4836 150.903 17.3705L150.721 17.3278L150.618 16.9824C150.663 16.9781 150.708 16.9755 150.757 16.9755C150.81 16.9755 150.864 16.9737 150.923 16.9694C151.337 16.9494 151.546 16.7405 151.546 16.3429C151.546 16.1611 151.49 16.0149 151.377 15.9009C151.258 15.7835 151.104 15.7252 150.91 15.7252C150.715 15.7252 150.578 15.773 150.496 15.8696C150.456 15.9192 150.419 16.0149 150.387 16.1558C150.358 16.269 150.317 16.3342 150.267 16.3499C150.263 16.3542 150.232 16.3603 150.174 16.369C150.093 16.369 150.03 16.3447 149.986 16.302V15.5668C150.157 15.3162 150.491 15.1866 150.995 15.1831C151.391 15.1805 151.713 15.2692 151.96 15.4511C152.202 15.6338 152.324 15.8948 152.324 16.2333C152.324 16.4743 152.242 16.6805 152.082 16.8528C151.943 17.0042 151.777 17.1094 151.583 17.1704C151.837 17.2391 152.041 17.3618 152.191 17.5393C152.347 17.722 152.427 17.9456 152.427 18.2084ZM154.273 18.8408C154.211 18.9296 154.061 18.9739 153.823 18.9739V19.3811H155.068V15.1787L153.641 15.5667V16.1131L153.962 16.0209C154.035 16.0018 154.093 15.9913 154.132 15.9913C154.271 15.9913 154.34 16.0748 154.34 16.2393V18.4136C154.34 18.6329 154.316 18.7747 154.273 18.8408Z" fill="white"/>
<path id="Pan Arcadian Federation of America" fill-rule="evenodd" clip-rule="evenodd" d="M61.2532 9.10065C60.9997 9.52423 60.634 9.86275 60.1564 10.1196C59.7299 10.3369 59.3235 10.4455 58.937 10.4455C58.033 10.4455 57.3165 10.0859 56.7893 9.36675C56.3012 8.69728 56.0572 7.86022 56.0572 6.85475C56.0572 5.81054 56.3064 4.97348 56.8041 4.34359C57.3425 3.66316 58.0686 3.32379 58.9831 3.32379C59.6943 3.32379 60.3596 3.55958 60.9788 4.03285V0.309895L62.701 0V8.37643L63.5851 9.51328L62.2893 10.4455L61.2532 9.10065ZM36.3874 9.92844C36.3874 10.0564 36.331 10.1743 36.2198 10.2813C36.0869 10.3899 35.9549 10.4455 35.8229 10.4455C35.5693 10.4455 35.3913 10.3369 35.2897 10.1196L33.9948 7.51917H29.576L28.982 8.92296C28.9516 8.99201 28.9359 9.06107 28.9359 9.13012C28.9359 9.38612 29.1999 9.51328 29.7288 9.51328L29.4544 10.2973H26.1169V9.51328C26.6857 9.51328 27.0314 9.37601 27.153 9.10065L30.3533 1.56548C30.3837 1.48632 30.3984 1.42316 30.3984 1.37179C30.3984 1.09726 30.17 0.959159 29.7132 0.959159L30.0328 0.176H32.303L36.3414 9.71959C36.3718 9.78949 36.3874 9.85938 36.3874 9.92844ZM4.48045 1.49095C5.63812 1.49095 6.21739 2.02232 6.21739 3.08758C6.21739 3.57011 6.05933 3.95916 5.74494 4.25474C5.42013 4.54022 4.98329 4.68338 4.43442 4.68338H2.85033V1.49095H4.48045ZM8.05492 3.59593C8.07934 3.43836 8.09155 3.27397 8.09155 3.10274C8.09155 2.216 7.79193 1.51116 7.19442 0.989054C6.58562 0.476211 5.74494 0.221053 4.67064 0.221053H0.213644L0 1.24084C0.691304 1.24084 1.03696 1.50611 1.03696 2.03832V10.2977H3.74919L3.9776 9.29222C3.27675 9.29222 2.92588 9.03538 2.92588 8.52422V5.9979H4.30849C5.48353 5.9979 6.41019 5.74106 7.08847 5.2299C7.57282 4.85175 7.88176 4.37552 8.0153 3.80122V4.4747H9.23377C9.93463 4.4747 10.3871 4.53028 10.5895 4.63891C10.8543 4.78544 10.9863 5.11639 10.9863 5.62754V5.77576C10.9759 5.77576 10.7727 5.83049 10.3767 5.93912C10.0006 6.03765 9.78786 6.0966 9.73662 6.11681C8.09173 6.6086 7.26842 7.40692 7.26842 8.50839C7.26842 9.06166 7.46122 9.52313 7.84769 9.89871C8.23329 10.2532 8.69011 10.4309 9.21901 10.4309C9.80783 10.4309 10.4427 10.3021 11.1236 10.0469C11.8409 9.76902 12.3698 9.62334 12.7077 9.60313V5.53997C12.7077 4.76186 12.4515 4.18081 11.9391 3.79681C11.4779 3.4507 10.8404 3.29407 10.0267 3.32354L9.61503 3.35217C9.4726 3.36312 9.33538 3.37828 9.20337 3.39765L8.45649 3.51638C8.28047 3.55066 8.14681 3.57736 8.05492 3.59593ZM10.9863 6.48565C10.4375 6.61281 9.96502 6.85365 9.569 7.20818C9.18253 7.55428 8.9906 7.91807 8.9906 8.30292C8.9906 8.67766 9.07136 8.96144 9.23377 9.16018C9.39617 9.3766 9.62458 9.48524 9.91899 9.48524C10.3055 9.48524 10.6607 9.33197 10.9863 9.02713V6.48565ZM17.7821 4.4459C18.4421 4.4459 18.8433 4.92927 18.9858 5.89432L19.5798 10.2977H20.6619V5.8059C20.6619 5.00759 20.4483 4.3878 20.0218 3.94485C19.6258 3.52969 19.0926 3.32337 18.4221 3.32337C17.5788 3.32337 16.8623 3.68295 16.2735 4.40295H16.2431V3.51622L15.9079 3.24843L13.7897 3.63243L13.6681 4.4459C14.237 4.36843 14.5209 4.62864 14.5209 5.2299V10.2977H16.2431V6.45601L16.0911 5.46569C16.6591 4.78695 17.2236 4.4459 17.7821 4.4459ZM33.3695 6.26359H30.1092L31.5874 2.58527L33.3695 6.26359ZM41.6437 5.25946C41.3388 4.9142 40.9932 4.74241 40.6076 4.74241C39.9467 4.74241 39.3882 5.00767 38.9314 5.53988L39.053 6.61778V8.78873C39.053 9.07589 39.1494 9.26283 39.3431 9.35041C39.4846 9.41105 39.7591 9.44052 40.1655 9.44052L39.9823 10.2961H37.3317V5.22999C37.3317 4.64725 37.0468 4.38788 36.478 4.44599L36.5996 3.63251L38.7178 3.24935L39.053 3.53062V4.50493C39.0634 4.50493 39.0739 4.50072 39.0834 4.49062C39.337 4.15462 39.6471 3.88009 40.0135 3.66283C40.3992 3.43714 40.7752 3.32346 41.1408 3.32346C41.6584 3.32346 42.0901 3.47167 42.4357 3.76725L41.7957 5.21483L41.6437 5.25946ZM47.7687 6.13011C47.9216 6.13011 48.0788 6.11159 48.2412 6.07201V4.26822C47.9772 3.93474 47.6871 3.69306 47.3727 3.54569C47.0375 3.39748 46.5954 3.32253 46.0474 3.32253C44.9905 3.32253 44.142 3.66358 43.5019 4.34316C42.8627 5.02274 42.5423 5.89938 42.5423 6.97222C42.5423 7.99706 42.8775 8.83328 43.548 9.48507C44.2289 10.1242 45.0765 10.4442 46.0926 10.4442C46.4791 10.4442 47.0071 10.3566 47.6776 10.179V9.36633H46.4886C45.8086 9.36633 45.2701 9.13054 44.8741 8.65643C44.4981 8.22443 44.3105 7.63328 44.3105 6.88464C44.3105 6.17475 44.4877 5.59453 44.8429 5.14148C45.1989 4.7078 45.6558 4.50064 46.215 4.52001C46.6614 4.53011 46.9359 4.67832 47.0375 4.9638C47.0575 5.0918 47.0835 5.2139 47.1139 5.33264C47.1339 5.4598 47.1547 5.59453 47.1747 5.7318C47.2251 5.9979 47.424 6.13011 47.7687 6.13011ZM54.5945 9.60313C54.2567 9.62334 53.7278 9.76902 53.0104 10.0469C52.3295 10.3021 51.6947 10.4309 51.1059 10.4309C50.577 10.4309 50.1201 10.2532 49.7345 9.89871C49.3481 9.52313 49.1553 9.06166 49.1553 8.50839C49.1553 7.40692 49.9786 6.6086 51.6235 6.11681C51.6747 6.0966 51.8875 6.03765 52.2635 5.93912C52.6595 5.83049 52.8628 5.77576 52.8732 5.77576V5.62754C52.8732 5.11639 52.7412 4.78544 52.4763 4.63891C52.2739 4.53028 51.8215 4.4747 51.1206 4.4747H49.9021V3.60396C49.9933 3.58544 50.1401 3.55596 50.3433 3.51638L51.0902 3.39765C51.2222 3.37828 51.3594 3.36312 51.5019 3.35217L51.9135 3.32354C52.7273 3.29407 53.3647 3.4507 53.8259 3.79681C54.3383 4.18081 54.5945 4.76186 54.5945 5.53997V9.60313ZM51.4558 7.20818C51.8519 6.85365 52.3243 6.61281 52.8732 6.48565V9.02713C52.5475 9.33197 52.1923 9.48524 51.8058 9.48524C51.5114 9.48524 51.283 9.3766 51.1206 9.16018C50.9582 8.96144 50.8774 8.67766 50.8774 8.30292C50.8774 7.91807 51.0694 7.55428 51.4558 7.20818ZM59.4173 4.43116C60.0391 4.43116 60.6106 4.6678 61.1317 5.14106L60.9788 6.32169V8.28717C60.6115 9.0257 60.1164 9.39622 59.4937 9.39622C58.8406 9.39622 58.3812 9.05517 58.1163 8.37643C57.8914 8.07075 57.7794 7.50991 57.7794 6.69222C57.7794 5.98317 57.9218 5.43159 58.2075 5.03748C58.5037 4.63243 58.9066 4.43116 59.4173 4.43116ZM66.5105 1.47655C66.5105 1.68371 66.434 1.87066 66.2821 2.03823C66.1196 2.19571 65.9208 2.27402 65.688 2.27402C65.4535 2.27402 65.2555 2.19571 65.0931 2.03823C64.9307 1.87992 64.8491 1.69381 64.8491 1.47655C64.8491 1.24918 64.9307 1.05802 65.0931 0.899707C65.2555 0.743075 65.4535 0.663917 65.688 0.663917C65.9112 0.663917 66.104 0.743075 66.2664 0.899707C66.4288 1.05802 66.5105 1.24918 66.5105 1.47655ZM64.8491 7.65256C64.8491 8.61677 65.1035 9.3553 65.6116 9.86898L66.19 10.4441L67.4858 9.51446L66.5713 8.37509V3.51613L66.236 3.24834L64.1187 3.63403L63.9962 4.44498C64.5651 4.36834 64.8491 4.62855 64.8491 5.22982V7.65256ZM73.58 9.60313C73.2422 9.62334 72.7133 9.76902 71.9959 10.0469C71.315 10.3021 70.6802 10.4309 70.0913 10.4309C69.5624 10.4309 69.1056 10.2532 68.72 9.89871C68.3336 9.52313 68.1408 9.06166 68.1408 8.50839C68.1408 7.40692 68.9641 6.6086 70.609 6.11681C70.6602 6.0966 70.873 6.03765 71.249 5.93912C71.645 5.83049 71.8483 5.77576 71.8587 5.77576V5.62754C71.8587 5.11639 71.7267 4.78544 71.4618 4.63891C71.2594 4.53028 70.807 4.4747 70.1061 4.4747H68.8876V3.60396C68.9788 3.58544 69.1256 3.55596 69.3288 3.51638L70.0757 3.39765C70.2077 3.37828 70.3449 3.36312 70.4874 3.35217L70.899 3.32354C71.7128 3.29407 72.3502 3.4507 72.8114 3.79681C73.3238 4.18081 73.58 4.76186 73.58 5.53997V9.60313ZM70.4413 7.20818C70.8374 6.85365 71.3098 6.61281 71.8587 6.48565V9.02713C71.533 9.33197 71.1778 9.48524 70.7913 9.48524C70.4969 9.48524 70.2685 9.3766 70.1061 9.16018C69.9437 8.96144 69.8629 8.67766 69.8629 8.30292C69.8629 7.91807 70.0549 7.55428 70.4413 7.20818ZM79.8581 5.89432C79.7157 4.92927 79.3144 4.4459 78.6544 4.4459C78.096 4.4459 77.5315 4.78695 76.9635 5.46569L77.1155 6.45601V10.2977H75.3933V5.2299C75.3933 4.62864 75.1093 4.36843 74.5404 4.4459L74.662 3.63243L76.7802 3.24843L77.1155 3.51622V4.40295H77.1459C77.7347 3.68295 78.4512 3.32337 79.2945 3.32337C79.9649 3.32337 80.4982 3.52969 80.8942 3.94485C81.3206 4.3878 81.5342 5.00759 81.5342 5.8059V10.2977H80.4521L79.8581 5.89432ZM92.3373 1.59495C92.8854 1.59495 93.211 1.93348 93.3126 2.61474L94.3331 2.40758L94.0283 0.220632H87.4913L87.2785 1.24042C87.9794 1.24042 88.3302 1.50653 88.3302 2.03706V10.2973H90.2035V6.42527C90.2035 6.18948 90.3355 6.04127 90.6004 5.98317L93.0842 5.39201V4.68295H90.1436V1.59495H92.3373ZM95.7355 7.57845C95.745 8.07109 95.9335 8.48372 96.2991 8.81972C96.6543 9.14561 97.0964 9.3073 97.6253 9.3073H98.3253V10.2825C97.858 10.3911 97.442 10.4441 97.0764 10.4441C96.1315 10.4441 95.3542 10.0947 94.7446 9.39488C94.1349 8.69593 93.8301 7.84035 93.8301 6.82561C93.8301 5.75192 94.161 4.8854 94.821 4.22519C95.4307 3.62476 96.1975 3.32245 97.1216 3.32245C98.0057 3.32245 98.7274 3.58013 99.2858 4.09213C100.007 4.74224 100.358 5.7275 100.338 7.0454H95.3238L95.7355 7.57845ZM98.6301 5.74519C98.6605 5.90435 98.6761 6.0374 98.6761 6.14603H96.0551L95.5983 6.13003C95.7407 4.98813 96.2844 4.4155 97.2284 4.4155C98.0109 4.4155 98.4781 4.86013 98.6301 5.74519ZM106.325 9.10065C106.071 9.52423 105.706 9.86275 105.228 10.1196C104.801 10.3369 104.395 10.4455 104.009 10.4455C103.104 10.4455 102.388 10.0859 101.861 9.36675C101.373 8.69728 101.129 7.86022 101.129 6.85475C101.129 5.81054 101.378 4.97348 101.876 4.34359C102.414 3.66316 103.14 3.32379 104.055 3.32379C104.766 3.32379 105.431 3.55958 106.05 4.03285V0.309895L107.773 0V8.37643L108.657 9.51328L107.361 10.4455L106.325 9.10065ZM104.489 4.43116C105.111 4.43116 105.682 4.6678 106.203 5.14106L106.05 6.32169V8.28717C105.683 9.0257 105.188 9.39622 104.565 9.39622C103.912 9.39622 103.453 9.05517 103.188 8.37643C102.963 8.07075 102.851 7.50991 102.851 6.69222C102.851 5.98317 102.993 5.43159 103.279 5.03748C103.575 4.63243 103.978 4.43116 104.489 4.43116ZM111.353 7.57845C111.364 8.07109 111.552 8.48372 111.918 8.81972C112.273 9.14561 112.715 9.3073 113.242 9.3073H113.945V10.2825C113.477 10.3911 113.059 10.4441 112.694 10.4441C111.749 10.4441 110.972 10.0947 110.363 9.39488C109.753 8.69593 109.448 7.84035 109.448 6.82561C109.448 5.75192 109.779 4.8854 110.44 4.22519C111.049 3.62476 111.816 3.32245 112.741 3.32245C113.624 3.32245 114.346 3.58013 114.903 4.09213C115.624 4.74224 115.976 5.7275 115.954 7.0454H110.942L111.353 7.57845ZM114.248 5.74519C114.278 5.90435 114.295 6.0374 114.295 6.14603H111.673L111.217 6.13003C111.358 4.98813 111.902 4.4155 112.846 4.4155C113.628 4.4155 114.096 4.86013 114.248 5.74519ZM121.714 5.25946C121.409 4.9142 121.065 4.74241 120.68 4.74241C120.019 4.74241 119.459 5.00767 119.003 5.53988L119.125 6.61778V8.78873C119.125 9.07589 119.222 9.26283 119.414 9.35041C119.557 9.41105 119.829 9.44052 120.238 9.44052L120.054 10.2961H117.402V5.22999C117.402 4.64725 117.117 4.38788 116.55 4.44599L116.67 3.63251L118.79 3.24935L119.125 3.53062V4.50493C119.134 4.50493 119.144 4.50072 119.156 4.49062C119.409 4.15462 119.718 3.88009 120.084 3.66283C120.47 3.43714 120.846 3.32346 121.212 3.32346C121.731 3.32346 122.162 3.47167 122.507 3.76725L121.868 5.21483L121.714 5.25946ZM126.605 10.0469C127.322 9.76902 127.852 9.62334 128.189 9.60313V5.53997C128.189 4.76186 127.934 4.18081 127.422 3.79681C126.959 3.4507 126.323 3.29407 125.509 3.32354L125.097 3.35217C124.955 3.36312 124.818 3.37828 124.685 3.39765L123.939 3.51638C123.745 3.5542 123.602 3.58278 123.509 3.60142L123.496 3.60396V4.4747H124.715C125.416 4.4747 125.869 4.53028 126.073 4.63891C126.337 4.78544 126.469 5.11639 126.469 5.62754V5.77576C126.457 5.77576 126.255 5.83049 125.859 5.93912C125.482 6.03765 125.268 6.0966 125.22 6.11681C123.573 6.6086 122.751 7.40692 122.751 8.50839C122.751 9.06166 122.943 9.52313 123.33 9.89871C123.715 10.2532 124.171 10.4309 124.701 10.4309C125.29 10.4309 125.925 10.3021 126.605 10.0469ZM126.469 6.48565C125.919 6.61281 125.446 6.85365 125.05 7.20818C124.666 7.55428 124.471 7.91807 124.471 8.30292C124.471 8.67766 124.554 8.96144 124.715 9.16018C124.878 9.3766 125.108 9.48524 125.401 9.48524C125.788 9.48524 126.143 9.33197 126.469 9.02713V6.48565ZM132.059 10.4452C132.568 10.4452 133.148 10.3762 133.796 10.2381V9.35134H132.38C131.79 9.35134 131.497 9.01197 131.497 8.33239V4.59428H133.661V3.47175H131.497V1.19638L130.157 1.46164L129.774 8.25744C129.733 8.9185 129.932 9.45408 130.369 9.86924C130.784 10.2532 131.35 10.4452 132.059 10.4452ZM136.922 1.47655C136.922 1.68371 136.844 1.87066 136.692 2.03823C136.531 2.19571 136.331 2.27402 136.099 2.27402C135.864 2.27402 135.667 2.19571 135.503 2.03823C135.342 1.87992 135.261 1.69381 135.261 1.47655C135.261 1.24918 135.342 1.05802 135.503 0.899707C135.667 0.743075 135.864 0.663917 136.099 0.663917C136.322 0.663917 136.514 0.743075 136.678 0.899707C136.839 1.05802 136.922 1.24918 136.922 1.47655ZM135.261 7.65256C135.261 8.61677 135.515 9.3553 136.023 9.86898L136.602 10.4441L137.896 9.51446L136.981 8.37509V3.51613L136.648 3.24834L134.528 3.63403L134.406 4.44498C134.976 4.36834 135.261 4.62855 135.261 5.22982V7.65256ZM145.394 6.82409C145.394 9.23926 144.259 10.4452 141.995 10.4452C140.95 10.4452 140.136 10.1403 139.557 9.5281C138.967 8.91841 138.673 8.01567 138.673 6.82409C138.673 5.71251 138.977 4.84599 139.587 4.22535C140.177 3.62493 140.98 3.32346 141.995 3.32346C143.072 3.32346 143.905 3.61904 144.495 4.2102C145.092 4.82157 145.394 5.69315 145.394 6.82409ZM141.979 4.37188C143.066 4.37188 143.61 5.19546 143.61 6.84009C143.61 8.54283 143.066 9.39589 141.979 9.39589C140.953 9.39589 140.442 8.53947 140.442 6.82409C140.442 6.09651 140.562 5.52051 140.806 5.09693C141.091 4.61272 141.483 4.37188 141.979 4.37188ZM151.321 5.89432C151.179 4.92927 150.777 4.4459 150.116 4.4459C149.559 4.4459 148.993 4.78695 148.425 5.46569L148.578 6.45601V10.2977H146.855V5.2299C146.855 4.62864 146.57 4.36843 146.003 4.4459L146.125 3.63243L148.243 3.24843L148.578 3.51622V4.40295H148.609C149.198 3.68295 149.914 3.32337 150.757 3.32337C151.427 3.32337 151.96 3.52969 152.356 3.94485C152.784 4.3878 152.997 5.00759 152.997 5.8059V10.2977H151.916L151.321 5.89432ZM162.002 10.4452C164.266 10.4452 165.4 9.23926 165.4 6.82409C165.4 5.69315 165.099 4.82157 164.501 4.2102C163.911 3.61904 163.078 3.32346 162.002 3.32346C160.986 3.32346 160.183 3.62493 159.593 4.22535C158.984 4.84599 158.679 5.71251 158.679 6.82409C158.679 8.01567 158.973 8.91841 159.564 9.5281C160.143 10.1403 160.956 10.4452 162.002 10.4452ZM163.617 6.84009C163.617 5.19546 163.073 4.37188 161.985 4.37188C161.489 4.37188 161.097 4.61272 160.813 5.09693C160.569 5.52051 160.448 6.09651 160.448 6.82409C160.448 8.53947 160.959 9.39589 161.985 9.39589C163.073 9.39589 163.617 8.54283 163.617 6.84009ZM170.138 1.28379C170.189 1.28379 170.239 1.28884 170.291 1.29979L170.946 1.28379V0.102316L170.062 0.0728422C169.9 0.0341053 169.722 0.0147369 169.529 0.0147369C168.919 0.0147369 168.391 0.221053 167.944 0.634527C167.376 1.16674 167.09 1.91032 167.09 2.86443V3.75201H166.055V4.87453H167.09V11.6569C167.09 11.7941 167.147 11.9162 167.259 12.0249C167.361 12.1242 167.482 12.1739 167.625 12.1739C167.949 12.1739 168.127 12.0013 168.158 11.6569L168.737 5.28717C168.756 5.06232 168.873 4.92506 169.086 4.87453L170.154 4.62274V3.75201H168.919V2.80632C168.919 2.29516 168.985 1.92969 169.117 1.71327C169.269 1.45727 169.559 1.31832 169.985 1.29979C170.037 1.29979 170.088 1.29474 170.138 1.28379ZM184.964 9.92844C184.964 10.0564 184.907 10.1743 184.796 10.2813C184.665 10.3899 184.531 10.4455 184.4 10.4455C184.146 10.4455 183.967 10.3369 183.868 10.1196L182.573 7.51917H178.154L177.558 8.92296C177.529 8.99201 177.512 9.06107 177.512 9.13012C177.512 9.38612 177.776 9.51328 178.306 9.51328L178.031 10.2973H174.693V9.51328C175.264 9.51328 175.608 9.37601 175.731 9.10065L178.929 1.56548C178.96 1.48632 178.976 1.42316 178.976 1.37179C178.976 1.09726 178.746 0.959159 178.29 0.959159L178.61 0.176H180.88L184.919 9.71959C184.949 9.78949 184.964 9.85938 184.964 9.92844ZM181.947 6.26359H178.685L180.164 2.58527L181.947 6.26359ZM194.624 5.83512C194.624 5.43176 194.507 5.1067 194.274 4.85997C194.029 4.61407 193.73 4.49028 193.375 4.49028C192.835 4.49028 192.314 4.77154 191.806 5.33239L191.972 6.41197V9.67682H190.891L190.297 5.87976C190.216 5.34755 190.092 4.98797 189.932 4.80018C189.768 4.59302 189.519 4.49028 189.184 4.49028C188.555 4.49028 187.985 4.80018 187.477 5.42165L187.629 6.45576V10.2974H185.909V5.22965C185.909 4.6486 185.624 4.38754 185.054 4.44649L185.176 3.63386L187.296 3.24986L187.629 3.53112V4.4027C188.342 3.68186 189.033 3.32396 189.702 3.32396C190.607 3.32396 191.277 3.72228 191.713 4.51975C192.403 3.72228 193.187 3.32396 194.061 3.32396C194.741 3.32396 195.29 3.53954 195.705 3.97407C196.132 4.41533 196.345 5.00312 196.345 5.73155V10.2974H194.624V5.83512ZM200.278 8.81972C199.912 8.48372 199.724 8.07109 199.713 7.57845L199.303 7.0454H204.315C204.336 5.7275 203.985 4.74224 203.264 4.09213C202.706 3.58013 201.984 3.32245 201.1 3.32245C200.176 3.32245 199.409 3.62476 198.801 4.22519C198.14 4.8854 197.81 5.75192 197.81 6.82561C197.81 7.84035 198.114 8.69593 198.724 9.39488C199.333 10.0947 200.109 10.4441 201.054 10.4441C201.42 10.4441 201.838 10.3911 202.305 10.2825V9.3073H201.602C201.075 9.3073 200.633 9.14561 200.278 8.81972ZM202.655 6.14603C202.655 6.0374 202.638 5.90435 202.608 5.74519C202.456 4.86013 201.988 4.4155 201.207 4.4155C200.261 4.4155 199.718 4.98813 199.576 6.13003L200.033 6.14603H202.655ZM209.04 4.74241C209.425 4.74241 209.769 4.9142 210.074 5.25946L210.228 5.21483L210.867 3.76725C210.522 3.47167 210.091 3.32346 209.572 3.32346C209.206 3.32346 208.83 3.43714 208.444 3.66283C208.078 3.88009 207.769 4.15462 207.516 4.49062C207.504 4.50072 207.494 4.50493 207.485 4.50493V3.53062L207.15 3.24935L205.03 3.63251L204.91 4.44599C205.477 4.38788 205.762 4.64725 205.762 5.22999V10.2961H208.415L208.598 9.44052C208.19 9.44052 207.917 9.41105 207.774 9.35041C207.582 9.26283 207.485 9.07589 207.485 8.78873V6.61778L207.363 5.53988C207.819 5.00767 208.379 4.74241 209.04 4.74241ZM213.716 1.47655C213.716 1.68371 213.639 1.87066 213.487 2.03823C213.325 2.19571 213.125 2.27402 212.894 2.27402C212.658 2.27402 212.462 2.19571 212.298 2.03823C212.136 1.87992 212.056 1.69381 212.056 1.47655C212.056 1.24918 212.136 1.05802 212.298 0.899707C212.462 0.743075 212.658 0.663917 212.894 0.663917C213.117 0.663917 213.309 0.743075 213.473 0.899707C213.634 1.05802 213.716 1.24918 213.716 1.47655ZM212.056 7.65256C212.056 8.61677 212.309 9.3553 212.817 9.86898L213.396 10.4441L214.69 9.51446L213.776 8.37509V3.51613L213.442 3.24834L211.323 3.63403L211.201 4.44498C211.771 4.36834 212.056 4.62855 212.056 5.22982V7.65256ZM220.908 6.07201C220.746 6.11159 220.589 6.13011 220.435 6.13011C220.091 6.13011 219.891 5.9979 219.841 5.7318C219.821 5.59453 219.801 5.4598 219.78 5.33264C219.75 5.2139 219.725 5.0918 219.704 4.9638C219.602 4.67832 219.328 4.53011 218.882 4.52001C218.322 4.50064 217.865 4.7078 217.511 5.14148C217.155 5.59453 216.977 6.17475 216.977 6.88464C216.977 7.63328 217.163 8.22443 217.541 8.65643C217.936 9.13054 218.474 9.36633 219.155 9.36633H220.344V10.179C219.673 10.3566 219.146 10.4442 218.759 10.4442C217.743 10.4442 216.896 10.1242 216.216 9.48507C215.544 8.83328 215.209 7.99706 215.209 6.97222C215.209 5.89938 215.53 5.02274 216.17 4.34316C216.808 3.66358 217.657 3.32253 218.714 3.32253C219.262 3.32253 219.704 3.39748 220.04 3.54569C220.353 3.69306 220.642 3.93474 220.908 4.26822V6.07201ZM225.372 10.0469C226.09 9.76902 226.62 9.62334 226.957 9.60313V5.53997C226.957 4.76186 226.701 4.18081 226.19 3.79681C225.727 3.4507 225.09 3.29407 224.276 3.32354L223.865 3.35217C223.722 3.36312 223.585 3.37828 223.452 3.39765L222.706 3.51638C222.504 3.55596 222.356 3.58544 222.263 3.60396V4.4747H223.483C224.183 4.4747 224.637 4.53028 224.84 4.63891C225.104 4.78544 225.236 5.11639 225.236 5.62754V5.77576C225.225 5.77576 225.022 5.83049 224.626 5.93912C224.249 6.03765 224.036 6.0966 223.987 6.11681C222.341 6.6086 221.518 7.40692 221.518 8.50839C221.518 9.06166 221.71 9.52313 222.097 9.89871C222.482 10.2532 222.939 10.4309 223.469 10.4309C224.058 10.4309 224.692 10.3021 225.372 10.0469ZM225.236 6.48565C224.686 6.61281 224.214 6.85365 223.818 7.20818C223.433 7.55428 223.239 7.91807 223.239 8.30292C223.239 8.67766 223.321 8.96144 223.483 9.16018C223.646 9.3766 223.875 9.48524 224.169 9.48524C224.555 9.48524 224.91 9.33197 225.236 9.02713V6.48565ZM26.0542 5.89475H22.5803V7.57896H26.0542V5.89475Z" fill="white"/>
</g>
</svg>
